STARTFONT 2.1
COMMENT CVS:Version $Id 1.4
COMMENT
COMMENT (C) CENA/J.L. Vinot, 2002, CENA (Centre d'Etudes de la Navigation Aérienne)
COMMENT This software is free software; you can redistribute it and/or modify it 
COMMENT under the terms of the GNU Lesser General Public License as published by the Free Software Foundation: 
COMMENT either version 2 of the License, or (at your option) any later version.
COMMENT 
COMMENT This software is distributed in the hope that it will be useful, but WITHOUT ANY WARRANTY; 
COMMENT without even the implied warranty of MERCHANTABILITY or FITNESS FOR A PARTICULAR PURPOSE.  
COMMENT See the GNU Lesser General Public License for more details.
COMMENT 
COMMENT You should have received a copy of the GNU Lesser General Public License along with this software; 
COMMENT if not, write to the Free Software Foundation, Inc., 59 Temple Place - Suite 330, Boston, MA  02111-1307, USA.
COMMENT Please refer to http://www.gnu.org/copyleft/gpl.html
COMMENT 
COMMENT This font has been originally designed by CENA/France for the specific needs of Air Traffic Control. 
COMMENT For example, it must offer good legibility and avoid any confusion between character shapes. 
COMMENT CENA would like to preserve its qualities. If you have any specific need, you can modify this font, 
COMMENT but we would like you to change its name to avoid any confusion between your new font and the original one designed by CENA.
COMMENT Note however, that as implied in the LGPL licence, you must credit CENA for the original work. 
COMMENT Finally, CENA would appreciate it if you send back any enhancement or extension made to the original work. 
COMMENT This statement must be fully included with any further distribution of the font.
COMMENT 
COMMENT to contact us: email to:  pii-contact@cena.fr
COMMENT write to: CENA, 7 avenue Edouard Belin, 31400 Toulouse, France 
FONT -CenaPii-Bleriot Radar-SemiBold-R-Normal--24-240-75-75-P-144-ISO8859-15
SIZE 24 72 72

STARTCHAR gcid14
ENCODING 20
SWIDTH 625 0
DWIDTH 15 0
BBX 12 3 1 7
BITMAP
FFF0
FFF0
FFF0
ENDCHAR
STARTCHAR gcid15
ENCODING 21
SWIDTH 666 0
DWIDTH 16 0
BBX 14 14 1 2
BITMAP
6000
F000
F800
7C00
3E04
1F0C
0F9C
07FC
03FC
01FC
01FC
03FC
07FC
0FFC
ENDCHAR
STARTCHAR gcid16
ENCODING 22
SWIDTH 666 0
DWIDTH 16 0
BBX 14 14 1 0
BITMAP
0FFC
07FC
03FC
01FC
01FC
03FC
07FC
0F9C
1F0C
3E04
7C00
F800
F000
6000
ENDCHAR
STARTCHAR space
ENCODING 32
SWIDTH 666 0
DWIDTH 16 0
BBX 0 0 0 0
BITMAP
ENDCHAR
STARTCHAR exclam
ENCODING 33
SWIDTH 333 0
DWIDTH 8 0
BBX 3 17 2 0
BITMAP
E0
E0
E0
E0
E0
E0
E0
E0
E0
E0
E0
E0
00
00
E0
E0
E0
ENDCHAR
STARTCHAR quotedbl
ENCODING 34
SWIDTH 416 0
DWIDTH 10 0
BBX 7 5 1 12
BITMAP
EE
EE
EE
66
66
ENDCHAR
STARTCHAR numbersign
ENCODING 35
SWIDTH 666 0
DWIDTH 16 0
BBX 15 13 1 1
BITMAP
0738
0738
3FFE
3FFE
0E70
0E70
0C60
1CE0
1CE0
FFF8
FFF8
39C0
39C0
ENDCHAR
STARTCHAR dollar
ENCODING 36
SWIDTH 666 0
DWIDTH 16 0
BBX 13 22 1 -2
BITMAP
0700
0700
1FC0
7FF0
7FF0
E770
E710
E700
F700
7F00
7F80
1FE0
07F0
07F8
0778
C738
E778
FFF0
FFF0
3FC0
0700
0700
ENDCHAR
STARTCHAR percent
ENCODING 37
SWIDTH 875 0
DWIDTH 21 0
BBX 20 18 1 0
BITMAP
3E0700
770E00
E38E00
E39C00
E39C00
E3B800
773800
3E7000
007000
00E000
00E7C0
01CEE0
01DC70
039C70
039C70
071C70
070EE0
0E07C0
ENDCHAR
STARTCHAR ampersand
ENCODING 38
SWIDTH 750 0
DWIDTH 18 0
BBX 16 18 2 0
BITMAP
1F00
3FC0
71C0
71C0
71C0
7B80
7F00
3E00
3F00
7F00
F780
E3DC
E1FC
E0F8
F0F8
FFFC
7FDE
3F0F
ENDCHAR
STARTCHAR quotesingle
ENCODING 39
SWIDTH 333 0
DWIDTH 8 0
BBX 3 5 2 12
BITMAP
E0
E0
E0
60
60
ENDCHAR
STARTCHAR parenleft
ENCODING 40
SWIDTH 416 0
DWIDTH 10 0
BBX 7 23 3 -4
BITMAP
0E
1C
38
38
70
70
F0
E0
E0
E0
E0
E0
E0
E0
E0
E0
F0
70
70
38
38
1C
0E
ENDCHAR
STARTCHAR parenright
ENCODING 41
SWIDTH 416 0
DWIDTH 10 0
BBX 7 23 0 -4
BITMAP
E0
70
38
38
1C
1C
1E
0E
0E
0E
0E
0E
0E
0E
0E
0E
1E
1C
1C
38
38
70
E0
ENDCHAR
STARTCHAR asterisk
ENCODING 42
SWIDTH 500 0
DWIDTH 12 0
BBX 10 10 1 8
BITMAP
0C00
4C80
EDC0
7F80
3F00
3F00
7F80
EDC0
CCC0
0C00
ENDCHAR
STARTCHAR plus
ENCODING 43
SWIDTH 583 0
DWIDTH 14 0
BBX 13 13 1 0
BITMAP
0700
0700
0700
0700
0700
FFF8
FFF8
FFF8
0700
0700
0700
0700
0700
ENDCHAR
STARTCHAR comma
ENCODING 44
SWIDTH 416 0
DWIDTH 10 0
BBX 5 8 2 -4
BITMAP
78
78
70
F0
E0
E0
C0
C0
ENDCHAR
STARTCHAR hyphen
ENCODING 45
SWIDTH 583 0
DWIDTH 14 0
BBX 9 3 2 5
BITMAP
FF80
FF80
FF80
ENDCHAR
STARTCHAR period
ENCODING 46
SWIDTH 583 0
DWIDTH 14 0
BBX 4 4 3 0
BITMAP
F0
F0
F0
F0
ENDCHAR
STARTCHAR slash
ENCODING 47
SWIDTH 541 0
DWIDTH 13 0
BBX 13 21 0 -2
BITMAP
0038
0038
0070
0070
00E0
00E0
01C0
01C0
0380
0780
0700
0F00
0E00
1C00
1C00
3800
3800
7000
7000
E000
E000
ENDCHAR
STARTCHAR zero
ENCODING 48
SWIDTH 708 0
DWIDTH 17 0
BBX 14 18 2 0
BITMAP
0FC0
3FF0
7CF8
7038
F0BC
E1DC
E1DC
E39C
E39C
E71C
E71C
EE1C
EE1C
F43C
7038
7CF8
3FF0
0FC0
ENDCHAR
STARTCHAR one
ENCODING 49
SWIDTH 625 0
DWIDTH 15 0
BBX 9 18 2 0
BITMAP
0380
0780
0F80
1F80
3F80
7B80
F380
E380
4380
0380
0380
0380
0380
0380
0380
0380
0380
0380
ENDCHAR
STARTCHAR two
ENCODING 50
SWIDTH 666 0
DWIDTH 16 0
BBX 13 18 2 0
BITMAP
0F80
3FE0
7FE0
F8F0
F070
2070
0070
00F0
00E0
01E0
03C0
0780
0F00
1E00
3C00
7FF8
FFF8
FFF8
ENDCHAR
STARTCHAR three
ENCODING 51
SWIDTH 708 0
DWIDTH 17 0
BBX 14 18 1 0
BITMAP
3FF8
3FF8
3FF0
01E0
03C0
0780
0F00
0FC0
0FF0
00F8
003C
003C
001C
701C
F83C
7EF8
3FF8
0FE0
ENDCHAR
STARTCHAR four
ENCODING 52
SWIDTH 708 0
DWIDTH 17 0
BBX 15 18 1 0
BITMAP
0380
0380
0780
0700
0F00
0E00
1E30
1C70
3C70
3870
7870
7FFE
FFFE
FFFE
0070
0070
0070
0070
ENDCHAR
STARTCHAR five
ENCODING 53
SWIDTH 708 0
DWIDTH 17 0
BBX 14 18 1 0
BITMAP
1FF8
1FF0
1FF0
1C00
1C00
1C00
1F80
1FE0
1FF8
00F8
003C
001C
001C
701C
F83C
7EF8
3FF8
0FE0
ENDCHAR
STARTCHAR six
ENCODING 54
SWIDTH 708 0
DWIDTH 17 0
BBX 14 18 2 0
BITMAP
03C0
0780
0F00
1E00
3C00
3800
77E0
7FF8
FEF8
F03C
E01C
E01C
E01C
F03C
7878
7FF8
3FF0
0FC0
ENDCHAR
STARTCHAR seven
ENCODING 55
SWIDTH 666 0
DWIDTH 16 0
BBX 14 18 1 0
BITMAP
7FFC
7FF8
FFF8
0070
00E0
00E0
01C0
01C0
0380
0380
0780
0700
0700
0F00
0E00
0E00
0E00
0E00
ENDCHAR
STARTCHAR eight
ENCODING 56
SWIDTH 708 0
DWIDTH 17 0
BBX 14 18 2 0
BITMAP
0FC0
3FF0
3CF8
7038
7038
7878
3EF0
3FE0
1FE0
3FF0
78F8
F03C
E01C
E01C
F03C
7DF8
7FF8
1FE0
ENDCHAR
STARTCHAR nine
ENCODING 57
SWIDTH 708 0
DWIDTH 17 0
BBX 13 18 2 0
BITMAP
0F80
3FE0
7FF0
7870
F038
E038
E038
E038
F0F8
7FF8
7FF0
1F70
00E0
01E0
03C0
0780
0F00
1E00
ENDCHAR
STARTCHAR colon
ENCODING 58
SWIDTH 416 0
DWIDTH 10 0
BBX 4 14 3 0
BITMAP
F0
F0
F0
F0
00
00
00
00
00
00
F0
F0
F0
F0
ENDCHAR
STARTCHAR semicolon
ENCODING 59
SWIDTH 416 0
DWIDTH 10 0
BBX 4 18 3 -4
BITMAP
F0
F0
F0
F0
00
00
00
00
00
00
F0
F0
F0
E0
E0
C0
C0
80
ENDCHAR
STARTCHAR less
ENCODING 60
SWIDTH 458 0
DWIDTH 11 0
BBX 9 12 1 0
BITMAP
0780
0F00
1E00
3C00
7800
F000
F000
7800
3C00
1E00
0F00
0780
ENDCHAR
STARTCHAR equal
ENCODING 61
SWIDTH 500 0
DWIDTH 12 0
BBX 10 9 1 2
BITMAP
FFC0
FFC0
FFC0
0000
0000
0000
FFC0
FFC0
FFC0
ENDCHAR
STARTCHAR greater
ENCODING 62
SWIDTH 458 0
DWIDTH 11 0
BBX 9 12 1 0
BITMAP
F000
7800
3C00
1E00
0F00
0780
0780
0F00
1E00
3C00
7800
F000
ENDCHAR
STARTCHAR question
ENCODING 63
SWIDTH 583 0
DWIDTH 14 0
BBX 12 18 1 0
BITMAP
0F80
3FE0
7FE0
F0F0
E070
E070
00F0
01E0
03C0
0780
0F00
0F00
0F00
0000
0E00
1F00
1F00
0E00
ENDCHAR
STARTCHAR at
ENCODING 64
SWIDTH 958 0
DWIDTH 23 0
BBX 23 21 0 -3
BITMAP
00FF00
03FFC0
0FEFF0
1F00F8
3C003C
78001C
703F1E
F0FF0E
E1E70E
E3C70E
E3870E
E3870E
E7870E
E3870C
73CF9C
71FFF8
38F9E0
3C0000
1F0040
0FFFC0
01FF00
ENDCHAR
STARTCHAR A
ENCODING 65
SWIDTH 750 0
DWIDTH 18 0
BBX 17 18 1 0
BITMAP
01C000
01C000
03E000
03E000
03E000
077000
077000
0E7800
0E3800
0E3800
1C1C00
1FFC00
3FFE00
3FFE00
380E00
700F00
700700
F00780
ENDCHAR
STARTCHAR B
ENCODING 66
SWIDTH 666 0
DWIDTH 16 0
BBX 13 18 2 0
BITMAP
FF00
FFC0
FFE0
E0E0
E0F0
E0E0
E1E0
FFC0
FFE0
FFF0
E078
E038
E038
E038
E078
FFF0
FFF0
FFC0
ENDCHAR
STARTCHAR C
ENCODING 67
SWIDTH 708 0
DWIDTH 17 0
BBX 14 18 2 0
BITMAP
03F0
0FFC
3FFC
3E18
7800
7000
F000
E000
E000
E000
E000
F000
7000
7800
3E18
3FFC
0FFC
03F0
ENDCHAR
STARTCHAR D
ENCODING 68
SWIDTH 708 0
DWIDTH 17 0
BBX 14 18 2 0
BITMAP
FF00
FFC0
FFE0
E1F0
E078
E038
E03C
E01C
E01C
E01C
E01C
E03C
E038
E078
E1F0
FFE0
FFC0
FF00
ENDCHAR
STARTCHAR E
ENCODING 69
SWIDTH 541 0
DWIDTH 13 0
BBX 11 18 2 0
BITMAP
FFC0
FFC0
FFC0
E000
E000
E000
E000
FF80
FF80
FF80
E000
E000
E000
E000
E000
FFE0
FFE0
FFE0
ENDCHAR
STARTCHAR F
ENCODING 70
SWIDTH 500 0
DWIDTH 12 0
BBX 10 18 2 0
BITMAP
FFC0
FFC0
FFC0
E000
E000
E000
E000
FF80
FF80
FF80
E000
E000
E000
E000
E000
E000
E000
E000
ENDCHAR
STARTCHAR G
ENCODING 71
SWIDTH 750 0
DWIDTH 18 0
BBX 15 18 2 0
BITMAP
03F0
0FFC
3FBC
3C08
7800
7000
F000
E000
E0FE
E0FE
E0FE
F00E
700E
780E
3E0E
1FFE
0FFE
03FE
ENDCHAR
STARTCHAR H
ENCODING 72
SWIDTH 666 0
DWIDTH 16 0
BBX 13 18 2 0
BITMAP
E038
E038
E038
E038
E038
E038
E038
FFF8
FFF8
FFF8
E038
E038
E038
E038
E038
E038
E038
E038
ENDCHAR
STARTCHAR I
ENCODING 73
SWIDTH 375 0
DWIDTH 9 0
BBX 3 18 4 0
BITMAP
E0
E0
E0
E0
E0
E0
E0
E0
E0
E0
E0
E0
E0
E0
E0
E0
E0
E0
ENDCHAR
STARTCHAR J
ENCODING 74
SWIDTH 458 0
DWIDTH 11 0
BBX 9 18 0 0
BITMAP
0380
0380
0380
0380
0380
0380
0380
0380
0380
0380
0380
0380
0380
0380
6780
FF00
FF00
3C00
ENDCHAR
STARTCHAR K
ENCODING 75
SWIDTH 708 0
DWIDTH 17 0
BBX 14 18 2 0
BITMAP
E070
E0F0
E1E0
E3C0
E780
EF00
FE00
FC00
F800
FC00
FE00
EF00
E780
E3C0
E1E0
E0F0
E078
E03C
ENDCHAR
STARTCHAR L
ENCODING 76
SWIDTH 500 0
DWIDTH 12 0
BBX 10 18 2 0
BITMAP
E000
E000
E000
E000
E000
E000
E000
E000
E000
E000
E000
E000
E000
E000
E000
FFC0
FFC0
FFC0
ENDCHAR
STARTCHAR M
ENCODING 77
SWIDTH 833 0
DWIDTH 20 0
BBX 17 18 2 0
BITMAP
E00380
E00380
F00780
F00780
F80F80
F80F80
FC1F80
FC1F80
FE3F80
EE3B80
EF7B80
E77380
E7F380
E3E380
E3E380
E1C380
E1C380
E08380
ENDCHAR
STARTCHAR N
ENCODING 78
SWIDTH 708 0
DWIDTH 17 0
BBX 14 18 2 0
BITMAP
E01C
E01C
F01C
F81C
F81C
FC1C
FE1C
EE1C
E71C
E79C
E39C
E1DC
E1FC
E0FC
E07C
E07C
E03C
E01C
ENDCHAR
STARTCHAR O
ENCODING 79
SWIDTH 875 0
DWIDTH 21 0
BBX 18 18 2 0
BITMAP
03F000
0FFC00
1FFE00
3E1F00
780780
700380
F003C0
E001C0
E001C0
E001C0
E001C0
F003C0
700380
780780
3C0F00
1FFE00
0FFC00
03F000
ENDCHAR
STARTCHAR P
ENCODING 80
SWIDTH 625 0
DWIDTH 15 0
BBX 12 18 2 0
BITMAP
FF00
FFC0
FFE0
E1E0
E0F0
E070
E070
E070
E0F0
E1E0
FFE0
FFC0
FF00
E000
E000
E000
E000
E000
ENDCHAR
STARTCHAR Q
ENCODING 81
SWIDTH 875 0
DWIDTH 21 0
BBX 19 18 2 0
BITMAP
03F000
0FFC00
1FFE00
3E1F00
780780
700380
F003C0
E001C0
E381C0
EFE1C0
EFF1C0
FC7BC0
783F80
781F80
3C0F00
1FFF80
0FFFC0
03F1E0
ENDCHAR
STARTCHAR R
ENCODING 82
SWIDTH 666 0
DWIDTH 16 0
BBX 14 18 2 0
BITMAP
FF00
FFC0
FFE0
E0F0
E070
E070
E070
E0F0
E1E0
FFE0
FF80
FF00
E780
E3C0
E1E0
E0F0
E078
E03C
ENDCHAR
STARTCHAR S
ENCODING 83
SWIDTH 625 0
DWIDTH 15 0
BBX 13 19 1 -1
BITMAP
0F80
3FE0
3FF0
78E0
7000
7800
3E00
3F80
0FC0
03F0
01F0
0078
0038
6038
F078
FFF0
7FF0
1FC0
0200
ENDCHAR
STARTCHAR T
ENCODING 84
SWIDTH 583 0
DWIDTH 14 0
BBX 13 18 1 0
BITMAP
FFF8
FFF8
FFF8
0700
0700
0700
0700
0700
0700
0700
0700
0700
0700
0700
0700
0700
0700
0700
ENDCHAR
STARTCHAR U
ENCODING 85
SWIDTH 666 0
DWIDTH 16 0
BBX 13 19 2 -1
BITMAP
E038
E038
E038
E038
E038
E038
E038
E038
E038
E038
E038
E038
E038
E038
F078
7DF0
7FF0
1FC0
0200
ENDCHAR
STARTCHAR V
ENCODING 86
SWIDTH 708 0
DWIDTH 17 0
BBX 16 18 1 0
BITMAP
E007
E007
E007
700E
700E
381C
381C
381C
1C38
1C38
0E70
0E70
0E70
07E0
07E0
03C0
03C0
0180
ENDCHAR
STARTCHAR W
ENCODING 87
SWIDTH 1000 0
DWIDTH 24 0
BBX 23 18 1 0
BITMAP
E0000E
E0100E
E0380E
70381C
707C1C
707C1C
387C38
38EE38
38EE38
1CEE70
1DC770
1DC770
0FC7E0
0F83E0
0F83E0
0783C0
0701C0
0701C0
ENDCHAR
STARTCHAR X
ENCODING 88
SWIDTH 666 0
DWIDTH 16 0
BBX 14 18 2 0
BITMAP
E01C
F03C
7838
3870
3CF0
1EE0
0FC0
0FC0
0780
0F80
0FC0
1FE0
1CE0
3CF0
7878
7038
F03C
E01C
ENDCHAR
STARTCHAR Y
ENCODING 89
SWIDTH 583 0
DWIDTH 14 0
BBX 13 18 1 0
BITMAP
E038
E038
7070
7070
38E0
38E0
1DC0
1DC0
0F80
0F80
0700
0700
0700
0700
0700
0700
0700
0700
ENDCHAR
STARTCHAR Z
ENCODING 90
SWIDTH 666 0
DWIDTH 16 0
BBX 14 18 1 0
BITMAP
7FF8
7FF0
7FF0
00E0
01E0
01C0
03C0
0780
0700
0F00
0E00
1C00
3C00
3800
7800
7FFC
FFFC
FFFC
ENDCHAR
STARTCHAR bracketleft
ENCODING 91
SWIDTH 416 0
DWIDTH 10 0
BBX 5 22 4 -4
BITMAP
F8
E0
E0
E0
E0
E0
E0
E0
E0
E0
E0
E0
E0
E0
E0
E0
E0
E0
E0
E0
E0
F8
ENDCHAR
STARTCHAR backslash
ENCODING 92
SWIDTH 541 0
DWIDTH 13 0
BBX 13 21 0 -2
BITMAP
E000
E000
7000
7000
3800
3800
1C00
1C00
0E00
0E00
0700
0700
0380
0380
01C0
01C0
00E0
00E0
0070
0070
0038
ENDCHAR
STARTCHAR bracketright
ENCODING 93
SWIDTH 416 0
DWIDTH 10 0
BBX 5 22 1 -4
BITMAP
F8
38
38
38
38
38
38
38
38
38
38
38
38
38
38
38
38
38
38
38
38
F8
ENDCHAR
STARTCHAR asciicircum
ENCODING 94
SWIDTH 666 0
DWIDTH 16 0
BBX 13 6 2 12
BITMAP
0700
0F80
1FC0
3DE0
78F0
F078
ENDCHAR
STARTCHAR underscore
ENCODING 95
SWIDTH 666 0
DWIDTH 16 0
BBX 16 2 0 -5
BITMAP
FFFF
FFFF
ENDCHAR
STARTCHAR a
ENCODING 97
SWIDTH 583 0
DWIDTH 14 0
BBX 11 14 2 0
BITMAP
0F80
3FC0
79E0
70E0
01E0
0FE0
3FE0
7CE0
F0E0
E0E0
E1E0
FBE0
7FE0
3EE0
ENDCHAR
STARTCHAR b
ENCODING 98
SWIDTH 625 0
DWIDTH 15 0
BBX 12 18 2 0
BITMAP
E000
E000
E000
E000
EF00
FFC0
FBE0
F0E0
E070
E070
E070
E070
E070
E070
E0E0
FBE0
FFC0
EF00
ENDCHAR
STARTCHAR c
ENCODING 99
SWIDTH 541 0
DWIDTH 13 0
BBX 10 14 2 0
BITMAP
0F80
3FC0
7DC0
7000
E000
E000
E000
E000
E000
E000
7000
7DC0
3FC0
0F80
ENDCHAR
STARTCHAR d
ENCODING 100
SWIDTH 625 0
DWIDTH 15 0
BBX 12 18 2 0
BITMAP
0070
0070
0070
0070
0F70
3FF0
7DF0
70F0
E070
E070
E070
E070
E070
E070
7070
7DF0
3FF0
0F70
ENDCHAR
STARTCHAR e
ENCODING 101
SWIDTH 625 0
DWIDTH 15 0
BBX 12 14 2 0
BITMAP
0F80
3FE0
7DE0
7070
E070
E0F0
E7F0
FFC0
FE00
F000
7040
7DE0
3FE0
0F80
ENDCHAR
STARTCHAR f
ENCODING 102
SWIDTH 500 0
DWIDTH 12 0
BBX 12 19 0 0
BITMAP
03E0
0FF0
0F60
1C00
1C00
7FE0
7FC0
FFC0
1C00
1C00
1C00
1C00
1C00
1C00
1C00
1C00
1C00
1C00
1C00
ENDCHAR
STARTCHAR g
ENCODING 103
SWIDTH 625 0
DWIDTH 15 0
BBX 12 18 2 -5
BITMAP
0FF0
3FF0
7EF0
7070
E070
E070
E070
E070
E070
70F0
7BF0
3FF0
0F70
0070
00F0
1DE0
1FE0
0F80
ENDCHAR
STARTCHAR h
ENCODING 104
SWIDTH 625 0
DWIDTH 15 0
BBX 11 18 2 0
BITMAP
E000
E000
E000
E000
EF00
FF80
FFC0
F1C0
E0E0
E0E0
E0E0
E0E0
E0E0
E0E0
E0E0
E0E0
E0E0
E0E0
ENDCHAR
STARTCHAR i
ENCODING 105
SWIDTH 291 0
DWIDTH 7 0
BBX 3 19 3 0
BITMAP
E0
E0
E0
00
00
60
E0
E0
E0
E0
E0
E0
E0
E0
E0
E0
E0
E0
E0
ENDCHAR
STARTCHAR j
ENCODING 106
SWIDTH 375 0
DWIDTH 9 0
BBX 8 24 0 -5
BITMAP
07
07
07
00
00
03
07
07
07
07
07
07
07
07
07
07
07
07
07
07
07
6F
FE
7C
ENDCHAR
STARTCHAR k
ENCODING 107
SWIDTH 583 0
DWIDTH 14 0
BBX 12 18 2 0
BITMAP
E000
E000
E000
E000
E0E0
E1E0
E3C0
E780
EF00
FE00
FC00
FC00
FE00
EF00
E780
E3C0
E1E0
E0F0
ENDCHAR
STARTCHAR l
ENCODING 108
SWIDTH 375 0
DWIDTH 9 0
BBX 7 18 2 0
BITMAP
E0
E0
E0
E0
E0
E0
E0
E0
E0
E0
E0
E0
E0
E0
F0
7E
7E
1E
ENDCHAR
STARTCHAR m
ENCODING 109
SWIDTH 916 0
DWIDTH 22 0
BBX 19 14 2 0
BITMAP
EF0F00
FFDFC0
FFFFC0
F1F1E0
E0E0E0
E0E0E0
E0E0E0
E0E0E0
E0E0E0
E0E0E0
E0E0E0
E0E0E0
E0E0E0
E0E0E0
ENDCHAR
STARTCHAR n
ENCODING 110
SWIDTH 583 0
DWIDTH 14 0
BBX 11 14 2 0
BITMAP
EF00
FFC0
FFC0
F1E0
E0E0
E0E0
E0E0
E0E0
E0E0
E0E0
E0E0
E0E0
E0E0
E0E0
ENDCHAR
STARTCHAR o
ENCODING 111
SWIDTH 666 0
DWIDTH 16 0
BBX 13 14 2 0
BITMAP
0F80
3FE0
7DF0
7070
E038
E038
E038
E038
E038
E038
7070
7DF0
3FE0
0F80
ENDCHAR
STARTCHAR p
ENCODING 112
SWIDTH 625 0
DWIDTH 15 0
BBX 12 18 2 -4
BITMAP
EF00
FFC0
FBE0
E0E0
E070
E070
E070
E070
E070
E070
F0E0
FBE0
FFC0
EF00
E000
E000
E000
E000
ENDCHAR
STARTCHAR q
ENCODING 113
SWIDTH 625 0
DWIDTH 15 0
BBX 12 18 2 -4
BITMAP
0F70
3FF0
7DF0
7070
E070
E070
E070
E070
E070
E070
70F0
7DF0
3FF0
0F70
0070
0070
0070
0070
ENDCHAR
STARTCHAR r
ENCODING 114
SWIDTH 500 0
DWIDTH 12 0
BBX 9 14 2 0
BITMAP
EF00
FF80
FF80
F100
E000
E000
E000
E000
E000
E000
E000
E000
E000
E000
ENDCHAR
STARTCHAR s
ENCODING 115
SWIDTH 541 0
DWIDTH 13 0
BBX 11 14 1 0
BITMAP
0F00
3FC0
7BC0
7080
7800
3E00
1F80
07C0
01E0
00E0
60E0
FBE0
7FC0
1F00
ENDCHAR
STARTCHAR t
ENCODING 116
SWIDTH 416 0
DWIDTH 10 0
BBX 9 18 1 0
BITMAP
1800
3800
3800
3800
FF80
FF80
FF00
3800
3800
3800
3800
3800
3800
3800
3C00
1F80
1F80
0780
ENDCHAR
STARTCHAR u
ENCODING 117
SWIDTH 583 0
DWIDTH 14 0
BBX 11 14 2 0
BITMAP
E0E0
E0E0
E0E0
E0E0
E0E0
E0E0
E0E0
E0E0
E0E0
E0E0
F1E0
7FE0
7FE0
1EE0
ENDCHAR
STARTCHAR v
ENCODING 118
SWIDTH 583 0
DWIDTH 14 0
BBX 13 14 1 0
BITMAP
E038
E038
7070
7070
7070
38E0
38E0
1DC0
1DC0
1FC0
0F80
0F80
0700
0700
ENDCHAR
STARTCHAR w
ENCODING 119
SWIDTH 833 0
DWIDTH 20 0
BBX 19 14 1 0
BITMAP
E000E0
E0E0E0
E0E0E0
70E1C0
71F1C0
71F1C0
39F380
3BFB80
3BBB80
1FBF00
1F1F00
1F1F00
0E0E00
0E0E00
ENDCHAR
STARTCHAR x
ENCODING 120
SWIDTH 541 0
DWIDTH 13 0
BBX 12 14 1 0
BITMAP
E070
F0E0
71E0
39C0
3F80
1F80
0F00
0F00
1F80
3BC0
39C0
70E0
F0F0
E070
ENDCHAR
STARTCHAR y
ENCODING 121
SWIDTH 625 0
DWIDTH 15 0
BBX 14 19 1 -5
BITMAP
E01C
E01C
701C
7038
3838
3838
1C70
1C70
0EE0
0EE0
07E0
07C0
03C0
0380
0380
0700
0700
0E00
1E00
ENDCHAR
STARTCHAR z
ENCODING 122
SWIDTH 583 0
DWIDTH 14 0
BBX 12 14 2 0
BITMAP
7FE0
7FC0
FFC0
0380
0700
0700
0E00
1E00
1C00
3800
7800
7FF0
FFE0
FFE0
ENDCHAR
STARTCHAR braceleft
ENCODING 123
SWIDTH 458 0
DWIDTH 11 0
BBX 9 23 1 -4
BITMAP
0780
0E00
1E00
1E00
1E00
1E00
1E00
1E00
1E00
1C00
3C00
F000
3C00
1C00
1E00
1E00
1E00
1E00
1E00
1E00
1E00
0E00
0780
ENDCHAR
STARTCHAR bar
ENCODING 124
SWIDTH 416 0
DWIDTH 10 0
BBX 3 22 4 -4
BITMAP
E0
E0
E0
E0
E0
E0
E0
E0
E0
E0
E0
E0
E0
E0
E0
E0
E0
E0
E0
E0
E0
E0
ENDCHAR
STARTCHAR braceright
ENCODING 125
SWIDTH 458 0
DWIDTH 11 0
BBX 9 23 1 -4
BITMAP
F000
3800
3C00
3C00
3C00
3C00
3C00
3C00
3C00
1C00
1E00
0780
1E00
1C00
3C00
3C00
3C00
3C00
3C00
3C00
3C00
3800
F000
ENDCHAR
STARTCHAR Euro
ENCODING 164
SWIDTH 750 0
DWIDTH 18 0
BBX 16 18 1 0
BITMAP
00FC
03FF
0FFF
0F87
1E01
1C00
FFFE
FFFC
3800
FFF8
FFF0
3C00
1C00
1E00
0F86
0FFF
03FF
00FC
ENDCHAR
STARTCHAR degree
ENCODING 176
SWIDTH 458 0
DWIDTH 11 0
BBX 9 8 1 10
BITMAP
3E00
7700
E380
E380
E380
E380
7700
3E00
ENDCHAR
STARTCHAR Agrave
ENCODING 192
SWIDTH 750 0
DWIDTH 18 0
BBX 17 22 1 0
BITMAP
070000
038000
018000
000000
01C000
01C000
03E000
03E000
03E000
077000
077000
0E7800
0E3800
0E3800
1C1C00
1FFC00
3FFE00
3FFE00
380E00
700F00
700700
F00780
ENDCHAR
STARTCHAR Acircumflex
ENCODING 194
SWIDTH 750 0
DWIDTH 18 0
BBX 17 22 1 0
BITMAP
01C000
03E000
077000
000000
01C000
01C000
03E000
03E000
03E000
077000
077000
0E3800
0E3800
0E3800
1C1C00
1FFC00
3FFE00
3FFE00
380E00
700F00
700700
F00780
ENDCHAR
STARTCHAR Ccedilla
ENCODING 199
SWIDTH 708 0
DWIDTH 17 0
BBX 14 23 2 -5
BITMAP
03F0
0FFC
3FFC
3E18
7800
7000
F000
E000
E000
E000
E000
F000
7000
7800
3E18
3FFC
0FFC
03F0
03F0
0078
0078
07F0
07E0
ENDCHAR
STARTCHAR Egrave
ENCODING 200
SWIDTH 583 0
DWIDTH 14 0
BBX 11 22 2 0
BITMAP
3800
1C00
0C00
0000
FFC0
FFC0
FFC0
E000
E000
E000
E000
FF80
FF80
FF80
E000
E000
E000
E000
E000
FFE0
FFE0
FFE0
ENDCHAR
STARTCHAR Eacute
ENCODING 201
SWIDTH 583 0
DWIDTH 14 0
BBX 11 22 2 0
BITMAP
0700
0E00
0C00
0000
FFC0
FFC0
FFC0
E000
E000
E000
E000
FF80
FF80
FF80
E000
E000
E000
E000
E000
FFE0
FFE0
FFE0
ENDCHAR
STARTCHAR Ecircumflex
ENCODING 202
SWIDTH 583 0
DWIDTH 14 0
BBX 11 22 2 0
BITMAP
0E00
1F00
3B80
0000
FFC0
FFC0
FFC0
E000
E000
E000
E000
FF80
FF80
FF80
E000
E000
E000
E000
E000
FFE0
FFE0
FFE0
ENDCHAR
STARTCHAR Edieresis
ENCODING 203
SWIDTH 583 0
DWIDTH 14 0
BBX 11 22 2 0
BITMAP
7380
7380
2100
0000
FFC0
FFC0
FFC0
E000
E000
E000
E000
FF80
FF80
FF80
E000
E000
E000
E000
E000
FFE0
FFE0
FFE0
ENDCHAR
STARTCHAR Icircumflex
ENCODING 206
SWIDTH 375 0
DWIDTH 9 0
BBX 7 22 2 0
BITMAP
38
7C
EE
00
38
38
38
38
38
38
38
38
38
38
38
38
38
38
38
38
38
38
ENDCHAR
STARTCHAR Idieresis
ENCODING 207
SWIDTH 375 0
DWIDTH 9 0
BBX 8 22 1 0
BITMAP
E7
E7
42
00
38
38
38
38
38
38
38
38
38
38
38
38
38
38
38
38
38
38
ENDCHAR
STARTCHAR Ocircumflex
ENCODING 212
SWIDTH 875 0
DWIDTH 21 0
BBX 18 22 2 0
BITMAP
01C000
03E000
077000
000000
03F000
0FFC00
1FFE00
3E1F00
780780
700380
F003C0
E001C0
E001C0
E001C0
E001C0
F003C0
700380
780780
3C0F00
1FFE00
0FFC00
03F000
ENDCHAR
STARTCHAR Ugrave
ENCODING 217
SWIDTH 666 0
DWIDTH 16 0
BBX 13 23 2 -1
BITMAP
1C00
0E00
0600
0000
E038
E038
E038
E038
E038
E038
E038
E038
E038
E038
E038
E038
E038
E038
F078
7DF0
7FF0
1FC0
0200
ENDCHAR
STARTCHAR Ucircumflex
ENCODING 219
SWIDTH 666 0
DWIDTH 16 0
BBX 13 23 2 -1
BITMAP
0700
0F80
1DC0
0000
E038
E038
E038
E038
E038
E038
E038
E038
E038
E038
E038
E038
E038
E038
F078
7DF0
7FF0
1FC0
0200
ENDCHAR
STARTCHAR Udieresis
ENCODING 220
SWIDTH 666 0
DWIDTH 16 0
BBX 13 23 2 -1
BITMAP
1CE0
1CE0
0840
0000
E038
E038
E038
E038
E038
E038
E038
E038
E038
E038
E038
E038
E038
E038
F078
7DF0
7FF0
1FC0
0200
ENDCHAR
STARTCHAR agrave
ENCODING 224
SWIDTH 583 0
DWIDTH 14 0
BBX 11 19 2 0
BITMAP
1C00
0E00
0600
0000
0000
0F80
3FC0
79E0
70E0
01E0
0FE0
3FE0
7CE0
F0E0
E0E0
E1E0
FBE0
7FE0
3EE0
ENDCHAR
STARTCHAR acircumflex
ENCODING 226
SWIDTH 583 0
DWIDTH 14 0
BBX 11 19 2 0
BITMAP
0E00
1F00
3B80
0000
0000
0F80
3FC0
79E0
70E0
01E0
0FE0
3FE0
7CE0
F0E0
E0E0
E1E0
FBE0
7FE0
3EE0
ENDCHAR
STARTCHAR ccedilla
ENCODING 231
SWIDTH 541 0
DWIDTH 13 0
BBX 10 18 2 -4
BITMAP
0F80
3FC0
7DC0
7000
E000
E000
E000
E000
E000
E000
7000
7DC0
3FC0
0F80
0F00
0380
1F80
1F00
ENDCHAR
STARTCHAR egrave
ENCODING 232
SWIDTH 625 0
DWIDTH 15 0
BBX 12 19 2 0
BITMAP
1C00
0E00
0600
0000
0000
0F80
3FE0
7DE0
7070
E070
E0F0
E7F0
FFC0
FE00
F000
7040
7DE0
3FE0
0F80
ENDCHAR
STARTCHAR eacute
ENCODING 233
SWIDTH 625 0
DWIDTH 15 0
BBX 12 19 2 0
BITMAP
0380
0700
0600
0000
0000
0F80
3FE0
7DE0
7070
E070
E0F0
E7F0
FFC0
FE00
F000
7040
7DE0
3FE0
0F80
ENDCHAR
STARTCHAR ecircumflex
ENCODING 234
SWIDTH 625 0
DWIDTH 15 0
BBX 12 19 2 0
BITMAP
0700
0F80
1DC0
0000
0000
0F80
3FE0
7DE0
7070
E070
E0F0
E7F0
FFC0
FE00
F000
7040
7DE0
3FE0
0F80
ENDCHAR
STARTCHAR edieresis
ENCODING 235
SWIDTH 625 0
DWIDTH 15 0
BBX 12 19 2 0
BITMAP
39C0
39C0
1080
0000
0000
0F80
3FE0
7DE0
7070
E070
E0F0
E7F0
FFC0
FE00
F000
7040
7DE0
3FE0
0F80
ENDCHAR
STARTCHAR icircumflex
ENCODING 238
SWIDTH 291 0
DWIDTH 7 0
BBX 7 19 1 0
BITMAP
38
7C
EE
00
00
18
38
38
38
38
38
38
38
38
38
38
38
38
38
ENDCHAR
STARTCHAR idieresis
ENCODING 239
SWIDTH 291 0
DWIDTH 7 0
BBX 8 19 1 0
BITMAP
E7
E7
42
00
00
18
38
38
38
38
38
38
38
38
38
38
38
38
38
ENDCHAR
STARTCHAR ocircumflex
ENCODING 244
SWIDTH 666 0
DWIDTH 16 0
BBX 13 19 2 0
BITMAP
0700
0F80
1DC0
0000
0000
0F80
3FE0
7DF0
7070
E038
E038
E038
E038
E038
E038
7070
7DF0
3FE0
0F80
ENDCHAR
STARTCHAR ugrave
ENCODING 249
SWIDTH 583 0
DWIDTH 14 0
BBX 11 19 2 0
BITMAP
3800
1C00
0C00
0000
0000
E0E0
E0E0
E0E0
E0E0
E0E0
E0E0
E0E0
E0E0
E0E0
E0E0
F1E0
7FE0
7FE0
1EE0
ENDCHAR
STARTCHAR ucircumflex
ENCODING 251
SWIDTH 583 0
DWIDTH 14 0
BBX 11 19 2 0
BITMAP
0E00
1F00
3B80
0000
0000
E0E0
E0E0
E0E0
E0E0
E0E0
E0E0
E0E0
E0E0
E0E0
E0E0
F1E0
7FE0
7FE0
1EE0
ENDCHAR
STARTCHAR udieresis
ENCODING 252
SWIDTH 583 0
DWIDTH 14 0
BBX 11 19 2 0
BITMAP
39C0
39C0
1080
0000
0000
E0E0
E0E0
E0E0
E0E0
E0E0
E0E0
E0E0
E0E0
E0E0
E0E0
F1E0
7FE0
7FE0
1EE0
ENDCHAR
ENDFONT
